<?xml version="1.0" encoding="utf-8"?>
<!-- Generator: Adobe Illustrator 24.2.3, SVG Export Plug-In . SVG Version: 6.00 Build 0)  -->
<svg version="1.1" id="Capa_1" xmlns="http://www.w3.org/2000/svg" xmlns:xlink="http://www.w3.org/1999/xlink" x="0px" y="0px"
	 viewBox="0 0 841.89 595.28" style="enable-background:new 0 0 841.89 595.28;" xml:space="preserve">
<style type="text/css">
	.st0{fill:#010202;}
	.st1{fill:#FFFFFF;}
</style>
<path class="st0" d="M529.34,435.87H312.55c-21.11,0-38.23-17.12-38.23-38.23V180.84c0-21.11,17.12-38.23,38.23-38.23h216.79
	c21.11,0,38.23,17.12,38.23,38.23v216.79C567.57,418.75,550.46,435.87,529.34,435.87z"/>
<g>
	<g>
		<g>
			<path class="st1" d="M382.12,270.68c-3.76-3.79-8.95-5.71-15.45-5.71c-9.86,0.12-16.81,3.74-20.71,10.77
				c-1.36-2.93-3.38-5.32-6.03-7.15c-3.49-2.4-7.88-3.62-13.08-3.62c-8.32,0.11-14.56,2.72-18.62,7.77v-7.48h-12.08v53.83h12.08
				v-26.58c0-4.8,1.37-8.77,4.07-11.79c2.71-3.03,6.32-4.56,11.02-4.68c4,0,7.13,1.1,9.29,3.28c2.2,2.21,3.26,5.23,3.26,9.22v30.54
				h12.18v-26.58c0-4.8,1.35-8.77,4.03-11.8c2.67-3.03,6.27-4.56,10.96-4.68c3.99,0,7.02,1.08,9.25,3.29
				c2.23,2.21,3.31,5.23,3.31,9.22v30.54h12.18v-32.96C387.78,279.67,385.88,274.47,382.12,270.68L382.12,270.68z"/>
			<path class="st1" d="M417.63,304.06l-16.11-38.8h-12.85l22.77,51.92l-1.78,3.99c-1.81,3.91-4.4,5.81-7.92,5.81
				c-2.15,0-4.32-0.74-6.45-2.19l-1.18-0.81l-5.34,9.31l0.92,0.71c1.86,1.44,3.83,2.51,5.85,3.2c2.02,0.69,4.28,1.04,6.71,1.04
				c4.05,0,7.63-1.09,10.65-3.25l0,0c2.99-2.13,5.41-5.32,7.19-9.47l25.3-60.27h-12.53L417.63,304.06z"/>
			<path class="st1" d="M513.56,290.17h19.47v13.56c-2.6,1.47-5.44,2.65-8.44,3.5c-3.24,0.92-6.47,1.39-9.6,1.39
				c-5.33,0-10.29-1.17-14.75-3.47c-4.45-2.29-8.03-5.44-10.63-9.36c-2.58-3.88-3.89-8.19-3.89-12.79c0-4.6,1.29-8.89,3.84-12.74
				c2.57-3.88,6.12-6.99,10.57-9.26c4.46-2.27,9.43-3.42,14.75-3.42c4.05,0,8.02,0.69,11.79,2.05c3.77,1.36,7.2,3.3,10.18,5.77
				l0.99,0.82l7.9-8.95l-1.1-0.87c-3.88-3.05-8.47-5.49-13.63-7.24c-5.16-1.76-10.58-2.65-16.11-2.65c-7.81,0-15.04,1.61-21.5,4.79
				c-6.49,3.19-11.68,7.63-15.42,13.18c-3.77,5.58-5.68,11.81-5.68,18.52c0,6.71,1.89,12.97,5.62,18.61
				c3.71,5.62,8.84,10.1,15.25,13.33c6.39,3.22,13.51,4.85,21.18,4.85c5.3,0,10.77-0.85,16.24-2.53c5.48-1.68,10.31-3.98,14.34-6.82
				l0.56-0.4V278.8h-31.91V290.17z"/>
		</g>
		<g>
			<g>
				<path class="st1" d="M459.53,240.23c-7.2,0-13.03,5.83-13.03,13.03c0,7.2,13.03,26.55,13.03,26.55s13.03-19.36,13.03-26.55
					C472.56,246.07,466.72,240.23,459.53,240.23z M459.53,259.66c-3.53,0-6.39-2.86-6.39-6.39c0-3.53,2.86-6.39,6.39-6.39
					s6.39,2.86,6.39,6.39C465.92,256.8,463.06,259.66,459.53,259.66z"/>
			</g>
		</g>
	</g>
</g>
</svg>
